<svg id="Capa_1" data-name="Capa 1" xmlns="http://www.w3.org/2000/svg" viewBox="0 0 1123.85 992.98"><defs><style>.cls-1{fill:#516889;}.cls-2{fill:#ccc;}.cls-3{fill:#494c56;}.cls-4{fill:#e8e8e8;}.cls-5{fill:#494656;}.cls-6{fill:#d8d8d8;}.cls-7{fill:#e5cac6;}.cls-8{fill:#e9f1f4;}.cls-9{fill:#fff;}.cls-10{fill:#e0ba99;}.cls-11{fill:#6b8c96;}.cls-12{fill:#30211f;}.cls-13{fill:#593e39;}.cls-14{fill:#6784b2;}</style></defs><title>Gato</title><path class="cls-1" d="M12.91,916.91c-2.67,16.28.51,59.38,14.1,69.59,16.07,12.09,36.75,19.92,56.15,24.48,23.6,5.55,48.05,6.85,72.22,6.78,27-.09,54-1.55,80.87-4s53.71-6.1,80.32-10.83c24.18-4.3,48.37-9.31,71.73-17,21.6-7.12,42.74-16.58,60.94-30.38,5.37-4.06,14.34-11.48,12.36-19.4-1.59-6.34-9.25-8.12-14.8-9-10.42-1.55-21.14-1.11-31.63-.66-29.22,1.25-58.35,4.34-87.62,4.72-13.1.17-26.44,0-39.38-2.21-6.21-1.08-12.54-2.58-18.08-5.66-4.34-2.4-11.46-7.12-8.53-12.83,2.46-4.79,9.77-8.16,14.3-10.76,20.46-11.74,43.7-17.86,66.87-21.45A396.51,396.51,0,0,1,418.54,874a190.14,190.14,0,0,1,76.54,19c21.32,10.27,42.19,20.9,64.5,29,44,15.91,90.64,24.61,137.37,26.82a484.34,484.34,0,0,0,140.73-13.83c22.51-5.66,45.81-12.39,66.39-23.33,17.7-9.4,35.91-25.71,35.51-47.5-.41-22-21.53-33.79-39.68-40.54A212.87,212.87,0,0,0,836.55,811c-42.89-2.15-87.25,7.24-124.6,28.72-13.37,7.69-40.76,22.88-32.37,42.23,7.67,17.69,34.54,17.86,50.43,16.56,25.31-2.07,49.53-10,73.65-17.48,25.39-7.85,51.12-14.12,77.48-17.73,47.65-6.54,101.4-8.47,146.71,10.3,19.64,8.14,43.57,23,47.9,45.59,4.37,22.85-19.09,36.44-37,43.56-21.84,8.69-45.3,14.25-68.25,19.08a460.23,460.23,0,0,1-75,9.8c-50.36,2.14-99.39-6.44-144.34-29.71-43.91-22.73-84.47-53.59-133.93-63.43-38.1-7.58-88-2-112.44,32.1-6,8.3-9.4,18.7-5,28.48,3.92,8.67,12.22,14.55,20.8,18.06,11.23,4.58,23.79,4.92,35.74,4.15,13.56-.87,27.09-2.73,40.6-4.21l166.4-18.26c27.51-3,55-6.14,82.55-9,26-2.74,52.7-5.06,78.63-.47,6.81,1.2,31.48,4.42,27.14,15.81-3.87,10.16-19.47,15.55-28.52,19.63-21.67,9.8-44.7,16.51-68,21-102,19.45-204.73-4.58-304.39-25.69-96.48-20.44-198.15-38.11-295.43-12-21.85,5.86-44.07,13.82-63.64,25.32-7.08,4.16-14.07,11.38-10.29,20.16,3.27,7.61,12.42,11.46,19.86,13.57,10.78,3,22.62,3.34,33.74,3.83,12.47.54,25,.39,37.43-.22,25.22-1.23,50.31-4.36,75.32-7.68,49.32-6.55,99.34-14.34,149.18-9.27,11.79,1.2,25.1,2.31,36.17,6.77,3.49,1.41,11.48,5,8.45,9.69-2.89,4.49-12.25,7.32-17,9.43-21.52,9.62-46.39,17.07-70.16,16.81-9.26-.11-19.22-1.32-27.36-6a22.6,22.6,0,0,1-8.36-8c-.52-.86-1-1.76-1.49-2.66.05.1-.33-.81-.32-.76a2.3,2.3,0,0,1,.1-.94,5.92,5.92,0,0,1,2-2.28,33.68,33.68,0,0,1,8.32-4.26c24.25-9.06,51.9-10.84,77.43-13.17,34.55-3.15,69.24-4.78,103.91-5.86,37.12-1.17,74.27-.94,111.38-2.49,47.86-2,96.32-6.76,142.2-21.21a299,299,0,0,0,63.56-28.47c21.19-12.65,41.75-25.79,66.33-30.69,45.5-9.08,93.45,5.75,132.91,28.09,4.46,2.52,8.47-4.34,4-6.87-39.72-22.48-86.79-36.94-132.7-30-24.07,3.64-44.92,14.65-65.48,27.12S889.2,971.28,866.25,979c-81.71,27.52-169.39,22.76-254.34,25.32-34.68,1-69.37,2.63-103.94,5.67-26.46,2.33-54.49,4.31-79.87,12.71-6.17,2-14.25,4.81-17.77,10.79-4.41,7.49,3,16.5,8.55,20.9,14.06,11.08,35.13,11.16,52,8.81a206.89,206.89,0,0,0,69.19-22.37c7.35-4,13.82-11.18,7.92-19.4-5.76-8-17.06-10.27-26.1-12-23.88-4.67-48.29-5.85-72.56-5-50.42,1.73-100.08,11.64-150.23,16.34-24.89,2.34-50,3.44-74.93,1.52-10.46-.8-22.53-1.3-31.45-7.56-12.33-8.65,6.2-16.49,13.34-20,42.58-21,90.4-29.61,137.53-31.4,105.11-4,206.27,27.46,308.77,45.47,93,16.34,196,22.06,283.09-21.07,8.78-4.35,19.64-9.83,23.55-19.49,3.46-8.53-1.6-16.14-9.24-20-10-5-22.13-6.75-33.16-8.06a233.51,233.51,0,0,0-38.77-1c-26.93,1.3-53.77,5-80.55,8l-83.2,9.13-83.2,9.13L589.27,970c-13.32,1.47-26.74,3.49-40.15,3.68-12.23.17-25.44-1.47-35.27-9.42-10.8-8.72-9.4-20.47-1.36-30.78,12.46-16,32.59-24.37,52-28,48.89-9.19,95.57,13.4,136.69,37.27,21.89,12.71,43.51,26,66.83,36a259.71,259.71,0,0,0,68.53,18.48c48.9,6.45,98.82,1,146.66-10,22.06-5.09,44.83-10.6,65.49-20.07,16.18-7.42,33.09-19.54,35.28-38.61,2.45-21.34-14.52-39.52-30.92-50.47-18.22-12.16-39.66-19-61.1-22.69-49.38-8.55-101.85-3.86-150.47,7.12-25.37,5.74-49.78,14.7-74.9,21.34-12.65,3.35-25.51,6-38.59,6.93-10.66.74-22,.7-32-3.88-3.57-1.65-7.42-4.08-9.11-7.8-2.61-5.72,1.2-11.36,5.07-15.38,7.48-7.73,17.51-13.54,26.87-18.7a211.32,211.32,0,0,1,60.67-21.82,231.07,231.07,0,0,1,66.54-3.5c21.6,2,44.63,6.81,63.95,17,9.58,5,19.41,12.54,21.29,23.91,1.84,11.08-4,22.23-11.48,30-16.61,17.15-42.31,24.61-64.54,31.31-90.9,27.39-191.28,26.22-281.49-3.37C551.37,911.1,530,901.56,509,891c-22.75-11.4-45.33-20.3-70.77-23.38-25.07-3-50.74-2.05-75.83.34-23.23,2.2-46.58,6.2-68.44,14.59a149,149,0,0,0-29.61,15c-7.35,4.93-14.77,12.16-10,21.62,6.53,13,24.25,16.59,37.35,18.32,28.34,3.75,57.48,1.16,85.86-.75,13.7-.93,27.41-2,41.14-2.45,9.56-.34,19.78-1,29.21,1.07a18.89,18.89,0,0,1,5.88,2.34c.09.07.36,0,.16.82a11,11,0,0,1-1,2.21c-3.15,5.13-8.57,8.74-13.4,12.06a184.25,184.25,0,0,1-30,16.55c-22,9.75-45.55,15.91-69.06,20.86-26.6,5.61-53.51,9.9-80.5,13.07q-40.87,4.82-82.05,6.11c-25.23.79-50.74,1-75.76-2.85a180.85,180.85,0,0,1-61.3-20.67c-6.29-3.49-12.91-7.53-16.94-13.66-4.73-7.21-4.65-45-3.3-53.18-3.81,23.19-11.47,21.05-7.67-2.12" transform="translate(-7.1 -71.46)"/><path class="cls-1" d="M8.9,919.69c1.95.44,4.48,28.41,4.89,26.22h0a22.4,22.4,0,0,1,1-3.59c.05-.14.32-1,.15-.4s.1-.23.17-.38c.27-.56.55-1.11.86-1.65s.59-1,.91-1.45c.15-.21.31-.42.46-.64s.27-.47,0,0,.11-.13.18-.22a26.32,26.32,0,0,1,2.34-2.5c.42-.4.85-.78,1.29-1.16l.62-.5c.7-.58-.4.27.14-.12,1-.71,2-1.4,3-2S27,930,28.12,929.5l1.47-.69.87-.39-.33.14.5-.2a60,60,0,0,1,12.94-3.58l.67-.1.35,0,.21,0,.73-.08c.87-.09,1.75-.16,2.62-.2a23.46,23.46,0,0,1,4,.11c3.63.46,8.09,1.4,12,2.19,4.37.89,8.74,1.73,13.16,2.31a93.25,93.25,0,0,0,23.31.16,97.67,97.67,0,0,0,23.22-5.61,122.77,122.77,0,0,0,21-10.81c3.24-2,6.46-4,9.76-5.95q2.42-1.4,4.9-2.66c.83-.41,1.67-.82,2.51-1.2l1.17-.53.31-.13.71-.28c7.77-3.07,16.19-4,24.38-5.26l6.26-1c2.06-.32,3.38-3,2.77-4.89a4.09,4.09,0,0,0-4.89-2.77l-13,2.06a106.86,106.86,0,0,0-12.68,2.51c-7.61,2.15-14.57,6-21.27,10.16s-13.19,8.37-20.35,11.56c-1.59.7-3.06,1.3-5,2s-3.61,1.25-5.43,1.79a92,92,0,0,1-11.58,2.65L102,921l-.66.09c.1,0,.44,0,0,0-1,.13-2,.25-3.06.34q-3,.29-5.93.37a92.29,92.29,0,0,1-11.87-.41c-8-.8-16.37-3.06-24.57-4.35a39.25,39.25,0,0,0-6.66-.66,48.9,48.9,0,0,0-5.67.48A63,63,0,0,0,30.27,920c-9.92,3.62-19.39-19.12-23.17-8.81" transform="translate(-7.1 -71.46)"/><path class="cls-2" d="M410.71,703c-27.14,28.08-52.35,58.17-82,83.57S264,832.8,225.36,838.25c-3.8.53-8.08,1.18-10.29,4.32s.76,8.94,4.25,7.34a7,7,0,1,0,6.27,12.27,8.56,8.56,0,0,0-2.8,9.65c5,3,11.37,2.06,17.12,1,48.77-9.15,97-22.59,141.61-44.38s85.49-52.2,115.6-91.63c5.73-7.5,11.25-15.87,11.6-25.29.38-10.58-6.13-20.57-14.86-26.56C463.28,664,433.56,679.33,410.71,703Z" transform="translate(-7.1 -71.46)"/><path class="cls-3" d="M455.16,780.82c-.13-.75-.28-1.5-.44-2.23-.89-4-1.92-8.19-4.37-11.52-2.92-4-7.61-6.39-12.45-7.41s-9.83-.77-14.75-.29C406.91,761,391,765,375.21,769.06c-5.83,1.5-11.94,3.14-16.32,7.28s-6.19,11.65-2.25,16.21c1.84,2.13,4.56,3.26,7.1,4.49,4.49,2.2,9.13,5.59,9.8,10.55.59,4.41-2.28,8.65-5.9,11.25s-7.93,4-12,5.81a54.4,54.4,0,0,0-8.15,4.59,6.6,6.6,0,0,0-2.61,2.71,6.69,6.69,0,0,0-.27,3,80.87,80.87,0,0,0,.92,9q18.36-7,36.06-15.59A353,353,0,0,0,455.16,780.82Z" transform="translate(-7.1 -71.46)"/><path class="cls-2" d="M789.41,446.8c-24.81,15.55-40.79,42.7-47.7,71.16s-5.56,58.28-1.74,87.31,10.08,57.74,12.91,86.88A365.09,365.09,0,0,1,732.5,852.81c-1.58,4.28-4.39,9.55.24,11.67,3.8,1.39,5.85-1,6.78-3.81-2,10.71,10.14,13.29,12.84,1.79-4.84,2.88.42,11.32,6,10.38s8.85-6.63,11-11.83c6.59-15.64,10.26-32.32,14.86-48.66a436.33,436.33,0,0,1,74.48-148.07c19.09-24.7,40.89-47.43,57.25-74s27.06-58.42,20.92-89S907.61,449,877.52,443.83C845.94,438.44,820.19,427.49,789.41,446.8Z" transform="translate(-7.1 -71.46)"/><path class="cls-3" d="M858.49,662.2a189.44,189.44,0,0,1-4-23.52c-.68-6.53-1.09-13.29-4.1-19.12-10.57-20.38-34.78-13.74-52.32-10.07-18.17,3.8-30.69,17-29.52,36.47.24,3.91.78,7.91,2.65,11.36,2.87,5.3,8.37,8.51,13.07,12.29,12.13,9.75,19.93,25.8,16.85,41-2.11,10.44-8.82,19.25-14.89,28Q778.37,750,771.57,762c-1.87,3.31-3.73,6.83-3.78,10.63,0,4.29,2.2,8.22,4.37,11.9l13.53,22.91A436.29,436.29,0,0,1,858.49,662.2Z" transform="translate(-7.1 -71.46)"/><path class="cls-4" d="M535.28,586.89c36.29-40,66.92-84.75,101.64-126.11s74.55-80,123.44-102.93c38-17.85,86.27-24.39,119.86.85,30.07,22.59,39.4,63.7,39.8,101.31,1,93.77-39.23,52.32-116.23,146.23-44.29,54-124,107.88-223.06,184.87-52.74,41-111.77-7.91-178.19-.93-17.63,1.85-38.38,2.52-49.7-11.13s-6.65-34.59,1.88-50.23c20.53-37.65,57.79-62.72,94.08-85.59,8.28-5.23,7.91-8.13,16.4-11.78,8.78-3.77,18.58-4.19,27.49-8.87C509.12,614,522.92,600.52,535.28,586.89Z" transform="translate(-7.1 -71.46)"/><path class="cls-5" d="M589,607.82c9.45-2.26,17.65-7.94,26.27-12.44s18.62-7.92,28-5.23c5.14,1.49,9.63,4.71,14.73,6.35,14,4.5,28.88-3.85,39.7-13.81,6-5.56,11.84-12.43,12.33-20.64.35-5.69-2-11.26-5.13-16-7.68-11.5-20-18.93-29.39-29.11s-15.41-26.2-7.61-37.61c6.31-9.22,18.69-11.4,28.65-16.45,22.75-11.54,33-42.66,21.58-65.46a49.61,49.61,0,0,0-6.51-9.83c-27.73,20.94-52.28,46.49-74.7,73.19-27.25,32.45-52,67-78.9,99.69A51.16,51.16,0,0,1,560.2,575c0,8.38-1.57,17.47,2.83,24.62C568.12,607.89,579.58,610.08,589,607.82Z" transform="translate(-7.1 -71.46)"/><path class="cls-6" d="M838.5,559.88c-2-.25-3.87.75-5.58,1.78-12.81,7.72-23.32,18.64-33.94,29.17A921.63,921.63,0,0,1,587.29,747.62c-14.86,8-27.21,12.9-37.1,26.93a151.07,151.07,0,0,0-17,31.42c18.28.55,35.87-3.33,52.82-16.5,99.08-77,178.77-130.87,223.05-184.87a306.38,306.38,0,0,1,34.41-36C843.72,564.67,842.21,560.35,838.5,559.88Z" transform="translate(-7.1 -71.46)"/><path class="cls-4" d="M942.72,212.78a274.5,274.5,0,0,1,52.33,108.71c7.5,32.63,8.13,69.54-11.46,96.69-9.21,12.76-22.24,22.35-36.11,29.79-20.15,10.82-42.77,17.53-65.64,17.32s-46-7.65-63.36-22.48c-9.76-8.31-17.76-19.09-21.13-31.46s-1.67-26.42,6-36.68c7.43-9.9,20.32-15.05,32.54-14.06,14.09,1.14,22.54,11,32.87,19.22,19.85,15.88,56.6,4.61,70.42-14.8,10-14.12,10.18-33.11,6.64-50.08-9.16-43.83-39-79.92-61.06-118.87" transform="translate(-7.1 -71.46)"/><path class="cls-4" d="M214.63,609.25a130.68,130.68,0,0,1,73.55,10.53,24.56,24.56,0,0,1,7.5,4.73c3,3,4.45,7.32,5.57,11.49,4.73,17.68,5.1,36.11,3.22,54.12-.93,9-2.45,17.89-4.24,26.73-1.41,6.93-2,20.77-6.42,26.25-15.25,19.09-53.07-60.65-58.68-73.29C233,665,213.14,609.48,214.63,609.25Z" transform="translate(-7.1 -71.46)"/><path class="cls-2" d="M504.61,758.13a66.24,66.24,0,0,0,11.32-9.46,63.37,63.37,0,0,0,8.66-12.91c19.32-36,23.1-82.52.81-116.74-4.24-6.51-9.39-12.52-15.79-16.92-9.95-6.85-22.38-9.38-34.46-9.21-23.21.33-45.34,10-65.16,22.05-24.08,14.64-46.32,33.72-59.4,58.67C342.24,689.54,338.1,708,339.87,726c1.87,19.07-3.62,36.35,6.9,51.61,7.41,10.75,27.64,13.58,41.46,14.67,18.74,1.48,38.67-1.69,56.72-6.53A191.43,191.43,0,0,0,504.61,758.13Z" transform="translate(-7.1 -71.46)"/><path class="cls-4" d="M264.66,698.18c3.85,30.81,20.7,59.92,45.28,78.23a75.72,75.72,0,0,0,21.92,11.76c20.06,6.38,41.59.94,60.94-6.7,29.27-11.54,57-28.46,77.49-52.8,9.44-11.23,17.21-23.85,24.69-36.57s14.83-25.81,18.19-40.35,2.55-30.14-.55-45c-3.93-18.8-12.24-37.84-27.71-48.73-16.81-11.85-38.32-23.83-58.12-20.35-34,6-104.5,17.64-148.27,90.28C266.16,648.49,261.63,673.89,264.66,698.18Z" transform="translate(-7.1 -71.46)"/><path class="cls-4" d="M396.65,466c26.76,17.11,50.44,39,72,62.81,13.93,15.38,27.38,32.27,32.95,52.43s1.31,44.33-14.95,56.32c-18,13.26-44.61,7.23-61.75-7.88-11.26-9.93-19.31-22.94-25.84-36.48-6.41-13.31-7-23.46-8.72-37.69a234.36,234.36,0,0,1-1.54-45.69C389,505.88,396.62,466,396.65,466Z" transform="translate(-7.1 -71.46)"/><path class="cls-7" d="M404.17,491.1a134.94,134.94,0,0,1,61.7,58.12,146.42,146.42,0,0,0-36.29-8.31c-7.89-.77-16.57-.67-22.79,4.25-.36-3.14-2.77-6.38-3.22-10.46q-.81-7.5-1-15C402.5,517,404.62,491.31,404.17,491.1Z" transform="translate(-7.1 -71.46)"/><path class="cls-7" d="M255.75,689.21a101,101,0,0,1,19.58-57.76c-1,1.31-32.22-10.15-35.6-11.16-2.33-.7-12.56-5.21-14.11-3.1-1.13,1.52,2.47,8.41,2.94,10.17C234.68,649.88,241.5,670.26,255.75,689.21Z" transform="translate(-7.1 -71.46)"/><path class="cls-8" d="M291.56,688.3a26.23,26.23,0,0,0,49.49-15.5,26.23,26.23,0,1,1-49.49,15.5Z" transform="translate(-7.1 -71.46)"/><path class="cls-9" d="M297.37,701.69a26.23,26.23,0,1,0,3.92-36.89A26.24,26.24,0,0,0,297.37,701.69Z" transform="translate(-7.1 -71.46)"/><path class="cls-10" d="M296.7,702.23a27.09,27.09,0,1,1,38.1,4A27.13,27.13,0,0,1,296.7,702.23Zm1.34-1.08a25.37,25.37,0,1,0,3.79-35.68A25.4,25.4,0,0,0,298,701.15Z" transform="translate(-7.1 -71.46)"/><path class="cls-11" d="M303.82,697.82a17.17,17.17,0,1,0,2.57-24.14A17.17,17.17,0,0,0,303.82,697.82Z" transform="translate(-7.1 -71.46)"/><path class="cls-12" d="M326.5,699.15a59.66,59.66,0,0,1-13.09-9.68,28.07,28.07,0,0,1-7.77-14.1c-.06.06,2.39.29,2.57.34,1.25.31,2.58,1.6,3.59,2.38a42.87,42.87,0,0,1,6.29,6,42.48,42.48,0,0,1,7,11.15C325.33,695.88,326,698.84,326.5,699.15Z" transform="translate(-7.1 -71.46)"/><path class="cls-9" d="M328.86,678.8a4.73,4.73,0,0,1,.61,1.6A2,2,0,0,1,329,682a2.07,2.07,0,0,1-2.38.16,8.29,8.29,0,0,1-1.92-1.68,14.9,14.9,0,0,0-5.71-3.66c-3.62-1.29.65-3.82,2.81-3.23A11.47,11.47,0,0,1,328.86,678.8Z" transform="translate(-7.1 -71.46)"/><path class="cls-9" d="M315.21,675.6a2.43,2.43,0,0,1-1.86.69,5.59,5.59,0,0,1-2-.52c-.33-.14-.71-.38-.68-.73a.78.78,0,0,1,.15-.35,4.09,4.09,0,0,1,3.59-1.56A1.48,1.48,0,0,1,315.21,675.6Z" transform="translate(-7.1 -71.46)"/><path class="cls-8" d="M391.73,598.2a26.23,26.23,0,0,0,49.49-15.5,26.23,26.23,0,1,1-49.49,15.5Z" transform="translate(-7.1 -71.46)"/><path class="cls-9" d="M397.55,611.59a26.23,26.23,0,1,0,3.91-36.89A26.22,26.22,0,0,0,397.55,611.59Z" transform="translate(-7.1 -71.46)"/><path class="cls-10" d="M396.88,612.13a27.09,27.09,0,1,1,38.09,4A27.12,27.12,0,0,1,396.88,612.13Zm1.34-1.08A25.37,25.37,0,1,0,402,575.37,25.39,25.39,0,0,0,398.22,611.05Z" transform="translate(-7.1 -71.46)"/><path class="cls-11" d="M404,607.72a17.17,17.17,0,1,0,2.56-24.14A17.15,17.15,0,0,0,404,607.72Z" transform="translate(-7.1 -71.46)"/><path class="cls-12" d="M426.67,609.05a59.9,59.9,0,0,1-13.09-9.68,28.11,28.11,0,0,1-7.77-14.1c-.06.06,2.39.29,2.57.34,1.25.31,2.59,1.6,3.59,2.38a43.18,43.18,0,0,1,11.27,13.09,43.22,43.22,0,0,1,2,4C425.51,605.78,426.14,608.74,426.67,609.05Z" transform="translate(-7.1 -71.46)"/><path class="cls-9" d="M429,588.7a4.53,4.53,0,0,1,.61,1.6,1.89,1.89,0,0,1-.46,1.6,2.07,2.07,0,0,1-2.38.16,8.45,8.45,0,0,1-1.91-1.68,14.9,14.9,0,0,0-5.71-3.66c-3.63-1.29.65-3.82,2.81-3.23A11.38,11.38,0,0,1,429,588.7Z" transform="translate(-7.1 -71.46)"/><path class="cls-9" d="M415.38,585.5a2.41,2.41,0,0,1-1.85.69,5.87,5.87,0,0,1-2-.52c-.33-.14-.71-.38-.67-.73a.68.68,0,0,1,.15-.35,4.08,4.08,0,0,1,3.59-1.56A1.47,1.47,0,0,1,415.38,585.5Z" transform="translate(-7.1 -71.46)"/><path class="cls-13" d="M380.44,664a6,6,0,0,0-1.56,4.77A6.07,6.07,0,0,0,381,672c3,2.71,7.25,3.64,11.31,4s8.18.14,12.14,1a77.33,77.33,0,0,0,3.19-14.43,17.85,17.85,0,0,0-.07-6.23c-.48-2-1.75-4.59-3.64-5.47-2.09-1-8.76-1.12-11.45,4-.9,1.72-1.81,3.28-1.73,5.18A11.15,11.15,0,0,0,380.44,664Z" transform="translate(-7.1 -71.46)"/><path class="cls-13" d="M438.17,682.58a.88.88,0,0,0-1.22.15c-3.43,3.83-8.23,6.78-13.44,7.1-5.71.36-10.81-3-14.44-7.11-.27-.31-.53-.62-.79-.94l-.28-.58a62.44,62.44,0,0,0-6.62-10.52c-.7-.89-2.09.16-1.4,1.05.39.5.77,1,1.14,1.51a.92.92,0,0,0,0,1,74.91,74.91,0,0,0,5.66,8.37,57.7,57.7,0,0,1,3,7.69,14.88,14.88,0,0,1,.84,4.71,15.48,15.48,0,0,1-.87,4.52,29.16,29.16,0,0,1-4.34,8.4,29.59,29.59,0,0,1-7.75,7.26.88.88,0,0,0,1.05,1.4A31.3,31.3,0,0,0,411,701.31a21.81,21.81,0,0,0,1.27-4.9,14.11,14.11,0,0,0-.38-5,40.68,40.68,0,0,0-1.61-5,24.27,24.27,0,0,0,4,2.87,17.15,17.15,0,0,0,8.52,2.31,18.4,18.4,0,0,0,8-2,25,25,0,0,0,7.57-5.82A.87.87,0,0,0,438.17,682.58Z" transform="translate(-7.1 -71.46)"/><path class="cls-3" d="M404.46,632.86c1.52-4.32-1.2-9.07-4.72-12s-7.86-4.76-11.32-7.76a22,22,0,0,1-6.71-21.82c1.72-6.44,6.38-12,7.14-18.59.69-6-2-11.87-5.1-17A61,61,0,0,0,379.1,549a189.94,189.94,0,0,0-55,28.25c3.29,5.48,3.45,13.3,1.48,19.57-1.32,4.17-3.63,8-4.85,12.19a24.73,24.73,0,0,0,22.64,31.56c11.35.51,22.17-6.76,33.45-5.38,5.07.62,9.8,3,14.86,3.61S402.77,637.67,404.46,632.86Z" transform="translate(-7.1 -71.46)"/><path class="cls-13" d="M433.88,652.72a177.41,177.41,0,0,1,32.73-36.62,180.61,180.61,0,0,1,41.44-26.38,174.1,174.1,0,0,1,26.18-9.57,1.22,1.22,0,0,0-.65-2.35,179.82,179.82,0,0,0-45.77,20,183.39,183.39,0,0,0-38.63,31.65,180,180,0,0,0-17.41,22.08c-.87,1.3,1.24,2.53,2.11,1.23Z" transform="translate(-7.1 -71.46)"/><path class="cls-13" d="M441.4,659.69a193.79,193.79,0,0,1,41.74-26.86,196.56,196.56,0,0,1,47.18-15.45,191.71,191.71,0,0,1,28-3.23c1.56-.07,1.57-2.5,0-2.44a195.49,195.49,0,0,0-49.74,8.61,198.54,198.54,0,0,0-45.93,20.95A195.46,195.46,0,0,0,439.68,658c-1.2,1,.53,2.73,1.72,1.72Z" transform="translate(-7.1 -71.46)"/><path class="cls-13" d="M442.68,670.36a208.35,208.35,0,0,1,86.76-12.76,204.77,204.77,0,0,1,25,3.23c1.54.3,2.19-2.05.65-2.35a210.6,210.6,0,0,0-89.09,2.14A207.54,207.54,0,0,0,442,668c-1.45.55-.82,2.91.65,2.35Z" transform="translate(-7.1 -71.46)"/><path class="cls-13" d="M358.31,702.86A56.24,56.24,0,0,0,344.44,709c-4.28,2.47-8.53,5-12.77,7.55-8.5,5.1-16.92,10.37-25,16.12-16,11.41-30.44,24.83-41.17,41.42a132.59,132.59,0,0,0-14.23,29.55c-.5,1.49,1.85,2.13,2.35.65a130,130,0,0,1,29.83-48.85c13.47-13.88,29.64-24.76,46.1-34.77,4.64-2.82,9.32-5.58,14-8.33,4.9-2.88,9.87-5.71,15.41-7.14a1.22,1.22,0,0,0-.65-2.35Z" transform="translate(-7.1 -71.46)"/><path class="cls-13" d="M369.89,713.61c-8.64,3.1-16,8.72-22.45,15.14a266.29,266.29,0,0,0-19.52,22.39,196,196,0,0,0-17.37,25.1A171.27,171.27,0,0,0,290,835.1c-.24,1.53,2.11,2.19,2.35.64a169.59,169.59,0,0,1,18.32-54.62A180.3,180.3,0,0,1,327,756.2c6-7.78,12.38-15.43,19.12-22.61,6.91-7.35,14.77-14.18,24.4-17.63,1.47-.53.83-2.89-.65-2.35Z" transform="translate(-7.1 -71.46)"/><path class="cls-13" d="M375.24,725.16a127.52,127.52,0,0,0-27.13,39.18A163.81,163.81,0,0,0,335,814.45a215.35,215.35,0,0,0-1,30.79c.05,1.56,2.49,1.57,2.44,0a197.07,197.07,0,0,1,4.88-53.32,143,143,0,0,1,18.79-44.44A119.37,119.37,0,0,1,377,726.88c1.12-1.09-.6-2.82-1.73-1.72Z" transform="translate(-7.1 -71.46)"/><path class="cls-4" d="M510.27,738.29c-27.14,28.07-52.35,58.16-82,83.57s-64.67,46.25-103.34,51.7c-3.79.54-8.08,1.19-10.28,4.33s.76,8.94,4.24,7.34a7,7,0,1,0,6.27,12.27,8.57,8.57,0,0,0-2.8,9.64c5,3,11.37,2.07,17.12,1,48.77-9.15,97-22.6,141.61-44.38s85.49-52.2,115.61-91.64c5.72-7.49,11.25-15.87,11.59-25.29.39-10.58-6.12-20.57-14.85-26.55C562.85,699.29,533.12,714.65,510.27,738.29Z" transform="translate(-7.1 -71.46)"/><path class="cls-6" d="M594.75,721h0a28.83,28.83,0,0,1,7.33,17.68c.3,9.43-4.64,18.16-9.84,26-27.35,41.4-66.08,74.54-109.07,99.33l-1,.55.21-.1c44.58-21.79,85.48-52.2,115.6-91.64,5.72-7.49,11.25-15.87,11.59-25.29C610,737,603.48,727,594.75,721Z" transform="translate(-7.1 -71.46)"/><path class="cls-6" d="M779.46,506.66a281.35,281.35,0,0,0,27,93.12c1.54,3.15,3.16,6.69,1.81,9.93-.81,1.95-2.59,3.44-4.31,4.85-7.2,5.9-22.16,24.29-31.67,14.51-7.41-7.61-6.81-31.46-7.35-41.22a180,180,0,0,1,7.46-62C773.93,520.91,780,511.48,779.46,506.66Z" transform="translate(-7.1 -71.46)"/><path class="cls-4" d="M813,457c-22,19.36-33.34,48.74-35.56,77.93s3.94,58.42,12.41,86.45S809.08,676.7,816.58,705a364.8,364.8,0,0,1,5.88,161.83c-.87,4.49-2.79,10.15,2.13,11.48,4,.76,5.61-1.91,6.07-4.85-.25,10.89,12.16,11.48,13-.32-4.31,3.64,2.25,11.11,7.59,9.28s7.66-8,9-13.45c4-16.51,4.9-33.56,6.79-50.43,6.21-55.24,30-152,50.75-203.58,39.65-98.44,10.69-227.67-19.84-227.87C865.86,386.88,840.2,433,813,457Z" transform="translate(-7.1 -71.46)"/><path class="cls-3" d="M480.71,863.93a373.28,373.28,0,0,0,39.82-22.52c-4.64-2.68-10.31-3.7-15.73-4.24A132.34,132.34,0,0,0,454.31,842c-10.18,3-20.79,7.31-31.07,4.64-6-1.55-11.16-5.34-16.86-7.73-24.61,17.43-52.14,30.69-81.83,34.88-3.79.53-8.08,1.19-10.28,4.32s.76,8.95,4.24,7.35a6.95,6.95,0,1,0,6.28,12.26,8.57,8.57,0,0,0-2.81,9.65c5,3,11.37,2.06,17.12,1C387.87,899.17,436.13,885.72,480.71,863.93Z" transform="translate(-7.1 -71.46)"/><path class="cls-3" d="M745.43,396.22c-2.33,1.91-4.86,4.21-4.9,7.21-.11,7.13,11.31,6.74,16.46,11.66,4.3,4.11,3.15,11.58-.57,16.21s-9.26,7.33-14.24,10.56a68.67,68.67,0,0,0-29.39,42.52c-1.12,5.16-1.5,11,1.67,15.24,5.33,7.1,16.48,5,24.47,1.1,19.35-9.4,35.58-24.91,55.9-32s48.24-1,54.06,19.68c2.15,7.66.84,15.81-.49,23.65q-2.5,14.85-5,29.71c-2.48,14.68-2.15,34.37,12,38.92,13.68,4.41,25.46-10.34,31.75-23.27,11.46-23.56,20.82-50.82,12.08-75.52-3.52-10-9.86-19-11.77-29.35C885.31,440.86,889,428.91,889,417s-6.1-25.76-17.91-27.3c-5.29-.69-10.51,1.3-15.77,2.27-22.3,4.12-35.11-11-54.52-15.93C779.3,370.62,761.36,383.18,745.43,396.22Z" transform="translate(-7.1 -71.46)"/><path class="cls-14" d="M240.13,854.29a55.35,55.35,0,1,1-57.48-53.14A55.36,55.36,0,0,1,240.13,854.29Z" transform="translate(-7.1 -71.46)"/><path class="cls-1" d="M131.06,870.91a251.66,251.66,0,0,0,59.58-46c4.9-5.13,9.58-10.49,14-16,1.3-1.62,1.7-4.06,0-5.62-1.44-1.33-4.23-1.74-5.62,0a248.73,248.73,0,0,1-25.42,27.21q-6.83,6.27-14.1,12c-2.27,1.8-4.4,3.41-7,5.3s-5.09,3.63-7.68,5.38q-8.67,5.82-17.8,10.89a4,4,0,1,0,4,6.86Z" transform="translate(-7.1 -71.46)"/><path class="cls-1" d="M134,886.41c7.22-1.06,13.27-5.68,18.95-9.93s11.32-8.79,16.72-13.48a287.1,287.1,0,0,0,29.76-29.94q8-9.31,15.18-19.26a4,4,0,0,0-1.43-5.44,4.08,4.08,0,0,0-5.44,1.43,282.39,282.39,0,0,1-26.28,31.15q-7.14,7.34-14.79,14.14-3.9,3.46-7.93,6.8-1.85,1.53-3.72,3c-.68.55-1.36,1.09-2.05,1.62l-1,.81-.23.18L151,868c-3,2.27-6,4.57-9.13,6.6a23.37,23.37,0,0,1-10,4.1c-2.07.31-3.38,3-2.78,4.89.73,2.26,2.68,3.1,4.89,2.78Z" transform="translate(-7.1 -71.46)"/><path class="cls-1" d="M142.56,898c7.16-2.25,13.46-6.26,19.37-10.78s11.8-9.29,17.61-14c11.32-9.26,22.4-18.91,32.26-29.74a164.82,164.82,0,0,0,15.56-19.85,4,4,0,0,0-1.43-5.44,4.07,4.07,0,0,0-5.43,1.43c-7.71,11.64-17.31,22-27.79,31.75S171.17,870,160,878.76c-5.64,4.45-12.67,9.45-19.57,11.62a4,4,0,0,0,2.11,7.66Z" transform="translate(-7.1 -71.46)"/><path class="cls-1" d="M155.49,905.81a757.84,757.84,0,0,0,67.17-54.47c5.67-5.18,11.13-10.63,15.32-17.11a4,4,0,0,0-1.42-5.44,4.07,4.07,0,0,0-5.44,1.43c-3.4,5.25-8,9.85-12.78,14.3-5.09,4.71-10.3,9.29-15.54,13.83-10.51,9.08-21.54,18.13-32.36,26.45q-9.37,7.23-19,14.15c-1.68,1.21-2.66,3.51-1.42,5.44,1.07,1.66,3.63,2.72,5.44,1.42Z" transform="translate(-7.1 -71.46)"/><path class="cls-1" d="M140.41,818.6c-2,16.51,3.91,33,10.22,47.94a91.36,91.36,0,0,0,11.7,20.86,71.2,71.2,0,0,0,15.13,14.33,70.25,70.25,0,0,0,21.23,10.17,4,4,0,1,0,2.12-7.66c-1.57-.45-3.11-1-4.64-1.51-.73-.27-1.46-.56-2.18-.85-.43-.17,0,0,0,0l-.54-.24-1.24-.55a66.79,66.79,0,0,1-8.53-4.72c-1.37-.88-2.69-1.82-4-2.8-.36-.27,0,0,0,0-.16-.11-.31-.24-.46-.36l-.91-.73c-.66-.54-1.3-1.09-1.93-1.65a66.89,66.89,0,0,1-6.8-7c-.5-.6-1-1.2-1.48-1.82.35.45-.23-.3-.32-.43l-.81-1.11c-1-1.41-1.95-2.87-2.85-4.36a94,94,0,0,1-5.31-10.39c-.75-1.68-1.27-2.93-2-4.75s-1.43-3.63-2.11-5.45c-1.4-3.72-2.69-7.47-3.78-11.29-2.45-8.56-3.72-16.76-2.65-25.7.25-2.07-2-4.06-4-4-2.37.1-3.71,1.75-4,4Z" transform="translate(-7.1 -71.46)"/><path class="cls-1" d="M151.28,807.78c-1.23,4.49-.83,9.1.1,13.61.81,4,1.88,7.88,3,11.77a138,138,0,0,0,8.41,23.09,75,75,0,0,0,13.83,20A84.12,84.12,0,0,0,197,891.07c8.4,4.49,17.94,8,27.6,6.86,2.06-.24,4.08-1.66,4-4-.09-1.94-1.76-4.23-4-4a28.94,28.94,0,0,1-10.69-.65,45.48,45.48,0,0,1-5.71-1.78,48.91,48.91,0,0,1-4.79-2.11,79.92,79.92,0,0,1-19.21-12.84A63.9,63.9,0,0,1,171,854.93c-.86-1.65-1.68-3.33-2.44-5-.17-.39-.35-.78-.52-1.18-.08-.2-.17-.39-.25-.59,0,.09.15.37,0,0-.39-.93-.76-1.86-1.12-2.81-1.37-3.57-2.56-7.21-3.65-10.88-1.19-4-2.26-8.11-3.26-12.19-.27-1.12-.53-2.25-.75-3.38-.1-.53-.2-1.06-.28-1.59a11.23,11.23,0,0,1-.15-1.22,16.35,16.35,0,0,1,.43-6.12,4,4,0,0,0-7.67-2.11Z" transform="translate(-7.1 -71.46)"/><path class="cls-1" d="M164.22,804.22c.05,7.8,2.58,15.16,5.9,22.13a105.78,105.78,0,0,0,11.56,19.57c8,10.3,19.48,17.3,31.68,21.61a99,99,0,0,0,21.51,4.78c2.07.25,4.06-2,4-4a4.1,4.1,0,0,0-4-4l-1.16-.14c-1.26-.15.79.13-.47-.06-.77-.11-1.54-.23-2.3-.36q-2.31-.37-4.59-.87-4.38-.95-8.66-2.32c-1.36-.44-2.7-.91-4-1.42-.72-.27-1.45-.56-2.16-.85s-.28-.12-.13-.05l-1.41-.63a71.17,71.17,0,0,1-7.82-4.14c-1.31-.8-2.58-1.65-3.83-2.54-.51-.37-1-.74-1.53-1.13.62.47-.37-.3-.39-.32l-1.18-1a56.62,56.62,0,0,1-6.21-6.18c-.46-.53-.9-1.08-1.34-1.63s.53.73-.2-.26c-.24-.33-.49-.66-.73-1-1.07-1.52-2.07-3.09-3-4.69-1.79-3-3.48-6.11-5.09-9.22-3.47-6.73-6.39-13.94-6.43-21.36a4,4,0,0,0-7.95,0Z" transform="translate(-7.1 -71.46)"/><path class="cls-4" d="M945.65,314.2c-9.16-43.84-39-79.93-61.06-118.88-13.87-24.46-25.06-53.74-15.51-80.19,9.26-25.66,36.77-41.58,64-43.45s54,8.1,77.88,21.25c16.51,9.08,32.48,20.08,43.45,35.4,7.62,10.65,12.07,26.55,3,36-6.32,6.61-16.76,7.14-25.73,5.33-13.39-2.7-25.53-9.46-37.84-15.37s-25.54-11.13-39.17-10.38-27.71,9-31.26,22.17c-4.49,16.67,8.37,32.41,19.1,45.93a274.36,274.36,0,0,1,52.33,108.71" transform="translate(-7.1 -71.46)"/><path class="cls-3" d="M1054.4,128.33c-11-15.32-26.94-26.32-43.45-35.4C987,79.78,960.29,69.82,933.07,71.68s-54.73,17.79-64,43.45c-6.05,16.76-3.77,34.66,2.24,51.75,5.87.14,11.85-.73,17.35,2.08,7.22,3.67,10.6,11.52,15.46,17.54a40.6,40.6,0,0,0,30.1,14.78c-7.86-10.86-14.15-22.77-10.81-35.19,3.55-13.18,17.62-21.43,31.26-22.17s26.86,4.47,39.17,10.38,24.45,12.67,37.84,15.37c9,1.81,19.41,1.28,25.73-5.33C1066.47,154.88,1062,139,1054.4,128.33Z" transform="translate(-7.1 -71.46)"/></svg>