<svg id="Capa_1" data-name="Capa 1" xmlns="http://www.w3.org/2000/svg" viewBox="0 0 1920 1920"><defs><style>.cls-1{fill:none;}.cls-2{fill:#7f8dff;}</style></defs><title>HUELLA_AZUL</title><rect class="cls-1" width="1920" height="1920"/><path class="cls-2" d="M1421,1082c11.85,44.08,33.63,73.16,44,87a190.8,190.8,0,0,0,20,23c7,6.85,18.43,17.77,36,27,13.22,7,24,9.8,36,13s25.77,6.75,44,7c15.58.21,27.31-2.06,37-4a217.52,217.52,0,0,0,42-13c16-6.76,26.39-13.38,46-26,14.35-9.23,32.41-21.51,42-29,49-38.21,78.63-108.41,83-119,29.23-70.8,27.35-132.33,26-165-2.72-66-20.07-113.94-29-138-19.23-51.84-40-79.63-50-92-23.11-28.52-41.26-39.28-48-43-12.11-6.69-37.62-20.33-69-16-13.6,1.88-23.16,6.42-37,13-22.84,10.86-38,23.49-48,32-15,12.74-24.28,23.38-37,38a491,491,0,0,0-43,57c-8,12.67-5.81,10.59-26,46-22.29,39.1-23.66,39.24-32,56a455.15,455.15,0,0,0-23,55,399,399,0,0,0-14,50c-3,14.3-8,38.92-8,71C1413,1029.52,1413.16,1052.84,1421,1082Z"/><path class="cls-2" d="M1033,550a360.23,360.23,0,0,0,9,40c3.28,11.3,6.52,19.87,13,37,8,21.16,12.14,32,19,45a257.75,257.75,0,0,0,15,25c11.92,17.45,23.13,29,32,38,12.74,13,23.68,24.12,41,36,26.17,18,49.26,25.49,54,27a205.87,205.87,0,0,0,118,1c38.7-11.62,63.51-32.44,77-44,20.3-17.4,32.28-33.55,43-48a358.81,358.81,0,0,0,45-80c17.11-43.21,20.91-78.89,23-100,2.12-21.4,4.82-50.59-1-88-5.2-33.46-14.69-57.19-27-88-7-17.57-17.11-42.52-35-73-25-42.52-50.33-70.63-68-90-13.63-14.94-29.14-31.79-53-51a420,420,0,0,0-58-39c-19.92-11.14-33.55-18.64-54-24-12.87-3.37-28-7.19-48-5a113.2,113.2,0,0,0-45,15c-19.32,11.4-30,25.5-37,35-6.5,8.79-13.71,20.43-29,62-10.62,28.88-15.94,43.31-21,63-8.07,31.36-10.15,59-14,113-.63,8.86-3.42,49-4,102C1027.58,497.67,1028.55,523.18,1033,550Z"/><path class="cls-2" d="M1161,1786h0c45.78,5.24,49,5.59,55,6a433.69,433.69,0,0,0,68-1,483.06,483.06,0,0,0,57-8,378,378,0,0,0,60-17,350.71,350.71,0,0,0,42-19c18.54-10,31.33-19.24,42-27,17-12.33,32.22-23.55,49-42a254,254,0,0,0,20-25,242.79,242.79,0,0,0,21-36c4.3-9.23,7-16.64,10-25a245.31,245.31,0,0,0,8-25,201.22,201.22,0,0,0,5-27c.76-6.79.78-10.41,1-28,.47-37.21.61-38.48,0-44-1-9.32-2.69-16.55-6-31-1.82-8-3.77-16.46-7-27a307.78,307.78,0,0,0-17-43,337.2,337.2,0,0,0-21-37,458.58,458.58,0,0,0-84-96c-21.46-18.21-32.19-27.31-46-35a135.34,135.34,0,0,1-24-16c-4.36-3.69-8.53-7.72-15-14-2.59-2.51-4.24-4.15-14-14-16.31-16.45-19-19.27-23-24-2.26-2.7-2.64-3.3-10-13-21.46-28.28-22-28.14-28-37-8.08-11.92-13.78-22-16-26-5.59-10.08-6.37-12.72-13-25-2-3.78-4.2-7.67-15-26-12.44-21.12-18.66-31.67-21-35a247.57,247.57,0,0,0-25-30c-9.2-9.6-16.58-15.93-26-24-9.23-7.91-17.21-14.76-29-23a308.51,308.51,0,0,0-31-19c-2.78-1.49-11.52-6.12-25-12s-34.54-15-63-22a332.55,332.55,0,0,0-148-3,347.59,347.59,0,0,0-103,39,343.16,343.16,0,0,0-67,50,362.35,362.35,0,0,0-37,42,490.65,490.65,0,0,0-31,47c-5,8.6-7.5,13.68-14,24-3.51,5.57-8.68,13.5-20,29-10.08,13.8-18,24.61-29,38-13.52,16.41-24,27.31-42,46-16,16.57-23.93,24.86-36,36-3.72,3.43-8.65,7.9-49,42-22.67,19.16-23.75,20-28,24a371.15,371.15,0,0,0-37,41,399.17,399.17,0,0,0-33,50,358.36,358.36,0,0,0-17,34,343.26,343.26,0,0,0-21,66,285,285,0,0,0-6,41,273.52,273.52,0,0,0,2,57,266.18,266.18,0,0,0,35,98c26.6,43.89,59.18,68,80,83,7.69,5.56,38.3,27.18,84,44,37.26,13.71,67.2,17.85,91,21a529.66,529.66,0,0,0,105,3c72-5,119.75-7.89,167-38,36.42-23.2,43.89-44.15,70-43,25.81,1.13,28.18,22,77,42,14.8,6.06,31.53,10.37,65,19,21,5.4,38.53,9.35,51,12"/><path class="cls-2" d="M912.74,550.42a357.77,357.77,0,0,1-9,40c-3.28,11.3-6.52,19.86-13,37-8,21.16-12.14,32-19,45a256.94,256.94,0,0,1-15,25c-11.92,17.44-23.12,29-32,38-12.74,13-23.68,24.12-41,36-26.17,18-49.26,25.49-54,27a205.87,205.87,0,0,1-118,1c-38.7-11.62-63.5-32.44-77-44-20.3-17.4-32.28-33.55-43-48a358.81,358.81,0,0,1-45-80c-17.11-43.21-20.91-78.89-23-100-2.12-21.41-4.82-50.6,1-88,5.21-33.47,14.69-57.19,27-88,7-17.57,17.11-42.52,35-73,25-42.52,50.33-70.63,68-90,13.63-14.94,29.14-31.8,53-51a420,420,0,0,1,58-39c19.92-11.14,33.55-18.64,54-24,12.87-3.38,28-7.2,48-5a113.2,113.2,0,0,1,45,15c19.32,11.39,30,25.5,37,35,6.5,8.78,13.71,20.43,29,62,10.63,28.87,15.94,43.31,21,63,8.07,31.35,10.16,59,14,113,.63,8.86,3.42,49,4,102C918.17,498.08,917.2,523.59,912.74,550.42Z"/><path class="cls-2" d="M497.54,1081.48c-11.85,44.08-33.64,73.16-44,87a190.89,190.89,0,0,1-20,23c-7.05,6.85-18.44,17.77-36,27-13.22,7-24,9.8-36,13s-25.78,6.75-44,7c-15.59.21-27.31-2.06-37-4a217.31,217.31,0,0,1-42-13c-16-6.76-26.39-13.38-46-26-14.35-9.23-32.41-21.51-42-29-49-38.21-78.63-108.41-83-119-29.23-70.8-27.35-132.33-26-165,2.72-66,20.07-113.94,29-138,19.23-51.84,40-79.63,50-92,23.11-28.52,41.25-39.27,48-43,12.11-6.69,37.61-20.33,69-16,13.59,1.88,23.15,6.42,37,13,22.84,10.86,37.95,23.49,48,32,15,12.74,24.28,23.38,37,38a491,491,0,0,1,43,57c8,12.67,5.81,10.59,26,46,22.29,39.1,23.65,39.24,32,56a455.15,455.15,0,0,1,23,55,400.75,400.75,0,0,1,14,50c3,14.3,8,38.92,8,71C505.54,1029,505.38,1052.32,497.54,1081.48Z"/></svg>