<svg id="Capa_1" data-name="Capa 1" xmlns="http://www.w3.org/2000/svg" viewBox="0 0 229.84 71.63"><defs><style>.cls-1{fill:#fe7db6;}.cls-2{fill:#7f8dff;}</style></defs><title>NOMBRE_ROSAYAZUL</title><path class="cls-1" d="M10.86,51.53a2,2,0,0,1-1.92-.4,1.71,1.71,0,0,1-.34-1.84q3.14-10.22,6.2-20.4a5.28,5.28,0,0,1,1.51-2.38,5,5,0,0,1,2.46-1.27,1.88,1.88,0,0,1,2,.42,2.15,2.15,0,0,1,.18,2.05c-.71,2.36-1.41,4.73-2.12,7.09,2.41-.5,4.82-1,7.24-1.44q1-3.57,2.08-7.16a5.06,5.06,0,0,1,1.52-2.31,5,5,0,0,1,2.43-1.23A2,2,0,0,1,34,23.1a2,2,0,0,1,.25,2Q31.4,35.07,28.48,45a5.17,5.17,0,0,1-1.55,2.28,5,5,0,0,1-2.45,1.29,2,2,0,0,1-1.94-.45,1.91,1.91,0,0,1-.24-2l2.28-7.72c-2.43.47-4.86.95-7.28,1.46-.77,2.58-1.55,5.17-2.33,7.75A5.31,5.31,0,0,1,13.4,50,5.14,5.14,0,0,1,11,51.33Z" transform="translate(-8.48 -14.32)"/><path class="cls-1" d="M48.56,44.53c-3.28.48-5.68.09-7.13-1.16s-1.8-3.26-1-6q2-7,3.95-14.06A4.61,4.61,0,0,1,45.86,21a4.79,4.79,0,0,1,2.42-1.16,2,2,0,0,1,2,.54,2.16,2.16,0,0,1,.25,2.07Q48.65,29.24,46.76,36a3.56,3.56,0,0,0,0,2.79c.36.57,1.2.75,2.52.56a4.94,4.94,0,0,0,3-1.35,6.9,6.9,0,0,0,1.55-3q1.84-6.76,3.64-13.53A4.59,4.59,0,0,1,59,19.21a4.52,4.52,0,0,1,2.5-1.14,2,2,0,0,1,2,.59,2.21,2.21,0,0,1,.28,2.08q-1.81,6.9-3.65,13.81a13.38,13.38,0,0,1-3.85,6.8,14,14,0,0,1-7.52,3.17Z" transform="translate(-8.48 -14.32)"/><path class="cls-1" d="M71.23,41.35a2,2,0,0,1-1.92-.67A2.2,2.2,0,0,1,69,38.6q2.46-9.42,4.84-18.82a4.33,4.33,0,0,1,1.33-2.2,4.12,4.12,0,0,1,2.38-1q5.26-.48,10.55-.85a1.92,1.92,0,0,1,1.54.52,1.83,1.83,0,0,1,.57,1.45,2.91,2.91,0,0,1-1.07,2.05,3.78,3.78,0,0,1-2.3,1c-2.49.18-5,.37-7.45.59L78.26,26c2.24-.2,4.48-.39,6.73-.55a1.88,1.88,0,0,1,1.55.43,1.82,1.82,0,0,1,.51,1.42,3.14,3.14,0,0,1-1,2.15,3.6,3.6,0,0,1-2.4,1.05c-2.22.17-4.43.36-6.65.56q-.65,2.55-1.3,5.1c2.52-.23,5-.45,7.56-.64a1.91,1.91,0,0,1,1.56.5,1.81,1.81,0,0,1,.58,1.45,3,3,0,0,1-1.06,2,3.66,3.66,0,0,1-2.28,1c-3.62.29-7.23.62-10.85,1Z" transform="translate(-8.48 -14.32)"/><path class="cls-1" d="M97.84,39.56a2.34,2.34,0,0,1-2-.76,2.22,2.22,0,0,1-.4-2.1q2.25-9.44,4.42-18.87a3.86,3.86,0,0,1,1.39-2.18,4,4,0,0,1,2.46-.93,2.32,2.32,0,0,1,2,.72,2.22,2.22,0,0,1,.37,2.06q-1.86,8.25-3.79,16.51c2.42-.1,4.85-.18,7.27-.25a2.6,2.6,0,0,1,1.77.54,1.83,1.83,0,0,1,.66,1.51,2.92,2.92,0,0,1-1.09,2.25,4.06,4.06,0,0,1-2.64,1c-3.47.1-7,.24-10.42.42Z" transform="translate(-8.48 -14.32)"/><path class="cls-1" d="M123.38,38.89a2.5,2.5,0,0,1-2-.86,2.27,2.27,0,0,1-.45-2.11q2-9.34,3.94-18.67a3.53,3.53,0,0,1,1.34-2.12,3.78,3.78,0,0,1,2.44-.81,2.5,2.5,0,0,1,2,.81,2.33,2.33,0,0,1,.43,2.09q-1.66,8.16-3.38,16.34,3.65,0,7.27.09a2.83,2.83,0,0,1,1.79.63,2,2,0,0,1,.7,1.54,2.7,2.7,0,0,1-1,2.2,3.79,3.79,0,0,1-2.61.88c-3.48-.06-7-.09-10.43-.08Z" transform="translate(-8.48 -14.32)"/><path class="cls-1" d="M148.85,39.69a3.06,3.06,0,0,1-2.11-.89,2,2,0,0,1-.54-2q1.85-9.51,3.6-19a3.22,3.22,0,0,1,1.17-2,3.49,3.49,0,0,1,2.43-.67,2.87,2.87,0,0,1,2.1.92,2.44,2.44,0,0,1,.47,2.11q-1.69,9.48-3.47,19A3.1,3.1,0,0,1,151.26,39a3.65,3.65,0,0,1-2.41.64Z" transform="translate(-8.48 -14.32)"/><path class="cls-1" d="M171.39,41.23a3,3,0,0,1-2.09-1,2.4,2.4,0,0,1-.55-2.12Q170.13,30,171.45,22c-1.42-.13-2.83-.25-4.25-.36a2.72,2.72,0,0,1-1.7-.76,2.32,2.32,0,0,1-.73-1.62,2.44,2.44,0,0,1,.95-2.07,3.08,3.08,0,0,1,2.33-.75q7.27.62,14.54,1.43a2.82,2.82,0,0,1,1.7.82,2.49,2.49,0,0,1,.76,1.64,2.28,2.28,0,0,1-.91,2,3,3,0,0,1-2.32.67q-2.1-.24-4.2-.45-1.26,8.06-2.59,16.11a2.86,2.86,0,0,1-1.22,2,3.5,3.5,0,0,1-2.39.58Z" transform="translate(-8.48 -14.32)"/><path class="cls-1" d="M193.55,43.52a3.78,3.78,0,0,1-2.25-1.12,3.28,3.28,0,0,1-1-2.16,3.15,3.15,0,0,1,.35-1.52q4.62-8.7,9-17.34a2.54,2.54,0,0,1,3-1.32l1.58.25a2.71,2.71,0,0,1,2.47,2.14q2,9.56,4,19.11a4.62,4.62,0,0,0,.11.54,5,5,0,0,1,.14.67c0,.21,0,.39,0,.53a2.23,2.23,0,0,1-.68,2,2.52,2.52,0,0,1-2.19.48,3.67,3.67,0,0,1-2.22-1.18,4,4,0,0,1-1-2.23l-.36-2.19q-3.34-.51-6.69-1c-.42,1-.85,2-1.28,2.92a2.42,2.42,0,0,1-2.85,1.52ZM203.75,35q-.65-3.6-1.27-7.19l-.15,0c-.91,2.2-1.84,4.4-2.77,6.6C201,34.61,202.35,34.81,203.75,35Z" transform="translate(-8.48 -14.32)"/><path class="cls-1" d="M228.44,49.5a20.17,20.17,0,0,1-8.28-3.6,3.34,3.34,0,0,1-1.39-2.32,1.57,1.57,0,0,1,.62-1.53,2.16,2.16,0,0,1,1.77-.37,4.61,4.61,0,0,1,1.33.53,19.15,19.15,0,0,0,5.79,2.25,4,4,0,0,0,2.87-.21,1.64,1.64,0,0,0,.8-1.68,2.87,2.87,0,0,0-1.22-1.9,18,18,0,0,0-2.62-1.73c-1-.55-2-1.16-3-1.8a10.59,10.59,0,0,1-2.68-2.47,6.44,6.44,0,0,1-1.35-3.42c-.24-2.41.39-4.19,1.86-5.31s3.81-1.39,7-.73a16.15,16.15,0,0,1,6.87,3.15,3.67,3.67,0,0,1,1.53,2.39,1.63,1.63,0,0,1-.54,1.52,1.91,1.91,0,0,1-1.69.32,7.77,7.77,0,0,1-1.62-.73,15.74,15.74,0,0,0-4.2-1.68,3.78,3.78,0,0,0-2.4.06,1.3,1.3,0,0,0-.65,1.42,2.18,2.18,0,0,0,.86,1.33A8.6,8.6,0,0,0,230,34.21c.76.36,1.6.81,2.48,1.34A30,30,0,0,1,235,37.22a8,8,0,0,1,2.06,2.3,7.39,7.39,0,0,1,1.07,3c.31,2.74-.3,4.72-1.83,6s-4.15,1.52-7.79.79Z" transform="translate(-8.48 -14.32)"/><path class="cls-2" d="M19.18,85.88a2.09,2.09,0,0,1-2-.43,1.89,1.89,0,0,1-.25-2q3-9.9,6-19.77a5,5,0,0,1,1.54-2.36A5.64,5.64,0,0,1,27,60c1.77-.32,3.53-.64,5.3-.94,2.81-.49,5-.33,6.46.5s2.15,2.31,2,4.44c-.54,6.75-4.93,10.69-13.11,12.15l-2.47.45-1.68,5.57a4.94,4.94,0,0,1-1.61,2.36,5.49,5.49,0,0,1-2.53,1.28ZM28.56,71.1a7.74,7.74,0,0,0,3.79-1.66,4.53,4.53,0,0,0,1.57-3.15c.15-1.72-1-2.39-3.34-2l-2,.36-2,6.8Z" transform="translate(-8.48 -14.32)"/><path class="cls-2" d="M48.47,80.55a2,2,0,0,1-2-.58,2.17,2.17,0,0,1-.27-2.07q2.72-9.53,5.35-19A4.59,4.59,0,0,1,53,56.61a4.5,4.5,0,0,1,2.47-1.12q5.46-.7,10.92-1.3a1.88,1.88,0,0,1,1.58.46,1.71,1.71,0,0,1,.57,1.42,3.11,3.11,0,0,1-1.15,2.1A4.17,4.17,0,0,1,65,59.29c-2.57.28-5.14.59-7.7.91-.42,1.55-.85,3.1-1.27,4.65q3.48-.45,7-.84a1.93,1.93,0,0,1,1.6.37,1.68,1.68,0,0,1,.49,1.4A3.28,3.28,0,0,1,64,68a4.08,4.08,0,0,1-2.5,1.15c-2.3.26-4.59.55-6.88.84-.48,1.72-1,3.44-1.43,5.16q3.9-.51,7.81-1a2,2,0,0,1,1.6.44A1.72,1.72,0,0,1,63.19,76a3.27,3.27,0,0,1-1.14,2.1,4.06,4.06,0,0,1-2.37,1.14q-5.61.66-11.22,1.44Z" transform="translate(-8.48 -14.32)"/><path class="cls-2" d="M75.81,78a2.53,2.53,0,0,1-2.08-.64,1.84,1.84,0,0,1-.49-1.9q2.55-9.67,5-19.34a4.25,4.25,0,0,1,1.48-2.2,4.38,4.38,0,0,1,2.46-1c1.88-.15,3.77-.29,5.65-.42,2.81-.19,5,.24,6.42,1.23a5.17,5.17,0,0,1,2.14,4.77c-.12,4.2-2.26,7.11-6.44,8.79Q91,70,92.1,72.64A3.21,3.21,0,0,1,92.41,74a2.69,2.69,0,0,1-1,1.92,3.37,3.37,0,0,1-2.15.93,2.52,2.52,0,0,1-2.89-1.71c-.77-2.17-1.53-4.35-2.29-6.52l-2.77.21-1.5,5.84a4.27,4.27,0,0,1-1.5,2.16,4.6,4.6,0,0,1-2.48,1Zm9.35-14.26c3-.21,4.55-1.52,4.63-4,.06-1.63-1.11-2.39-3.47-2.22l-2.17.15c-.51,2.07-1,4.14-1.56,6.22Z" transform="translate(-8.48 -14.32)"/><path class="cls-2" d="M105.23,75.77a2.63,2.63,0,0,1-2.11-.75,2,2,0,0,1-.43-2q2.24-9.33,4.4-18.64a3.74,3.74,0,0,1,1.39-2.12,4.21,4.21,0,0,1,2.55-.87c1.85,0,3.7-.08,5.55-.11a10,10,0,0,1,7.13,2.44,8.67,8.67,0,0,1,2.75,6.7c0,4.57-1.27,8.21-3.87,11a13.45,13.45,0,0,1-10,4.22c-2.44,0-4.89.12-7.33.21Zm7.16-5.13A6.61,6.61,0,0,0,117.7,68a11.22,11.22,0,0,0,2-7.09,5.56,5.56,0,0,0-1-3.43,3.55,3.55,0,0,0-3.13-1.31l-2.71.05c-1.08,4.84-2.19,9.67-3.3,14.51Z" transform="translate(-8.48 -14.32)"/><path class="cls-2" d="M136.68,75.88A3.13,3.13,0,0,1,134.5,75a1.93,1.93,0,0,1-.53-2q2-9.55,4-19.09a3.36,3.36,0,0,1,1.24-2.05,3.84,3.84,0,0,1,2.53-.72,2.88,2.88,0,0,1,2.17.87,2.35,2.35,0,0,1,.47,2.1q-1.9,9.51-3.88,19a3.12,3.12,0,0,1-1.31,1.94,4,4,0,0,1-2.51.71Z" transform="translate(-8.48 -14.32)"/><path class="cls-2" d="M154.19,76.23a3,3,0,0,1-2.16-.94,2.22,2.22,0,0,1-.52-2.07q1.8-9.15,3.53-18.29a3.14,3.14,0,0,1,1.28-2,3.79,3.79,0,0,1,2.52-.64c1.85.11,3.69.24,5.54.38a11.26,11.26,0,0,1,7.23,3.07,10,10,0,0,1,3.06,7c.22,4.59-.88,8.12-3.34,10.64s-5.72,3.61-9.74,3.34q-3.66-.24-7.33-.44Zm6.91-4.5a5.72,5.72,0,0,0,5.19-2.19q1.89-2.4,1.69-6.93a6.34,6.34,0,0,0-1.11-3.52,4.09,4.09,0,0,0-3.19-1.59l-2.7-.19q-1.29,7.13-2.62,14.24Z" transform="translate(-8.48 -14.32)"/><path class="cls-2" d="M183.44,78.8a3.92,3.92,0,0,1-2.32-1.08,3.12,3.12,0,0,1-1.05-2.15,3,3,0,0,1,.38-1.51q4.94-8.81,9.66-17.52a2.76,2.76,0,0,1,3.11-1.37l1.64.22a2.66,2.66,0,0,1,2.54,2.1q1.92,9.51,3.87,19c0,.1.06.28.12.53a5,5,0,0,1,.13.68c0,.21,0,.38,0,.52a2.22,2.22,0,0,1-.75,2,2.76,2.76,0,0,1-2.29.52,3.81,3.81,0,0,1-3.33-3.34c-.12-.73-.23-1.46-.35-2.19q-3.47-.45-7-.85c-.46,1-.91,2-1.37,3a2.62,2.62,0,0,1-3,1.57Zm10.75-8.69Q193.58,66.53,193,63l-.16,0c-1,2.21-2,4.42-3,6.64Q192,69.82,194.19,70.11Z" transform="translate(-8.48 -14.32)"/><path class="cls-2" d="M219.7,84.15a21,21,0,0,1-8.57-3.46,3.23,3.23,0,0,1-1.42-2.29,1.61,1.61,0,0,1,.68-1.55,2.36,2.36,0,0,1,1.84-.4,4.65,4.65,0,0,1,1.39.51,20,20,0,0,0,6,2.15,4.38,4.38,0,0,0,3-.25,1.68,1.68,0,0,0,.87-1.7,2.75,2.75,0,0,0-1.24-1.88,18,18,0,0,0-2.71-1.69c-1-.52-2.07-1.12-3.12-1.74a10.57,10.57,0,0,1-2.76-2.43A6.06,6.06,0,0,1,212.3,66q-.31-3.62,2-5.34c1.55-1.15,4-1.46,7.31-.85a16.68,16.68,0,0,1,7.13,3,3.47,3.47,0,0,1,1.55,2.36,1.6,1.6,0,0,1-.59,1.53,2,2,0,0,1-1.76.34,7,7,0,0,1-1.69-.7,16.41,16.41,0,0,0-4.36-1.6,4.09,4.09,0,0,0-2.51.09,1.32,1.32,0,0,0-.69,1.43,2,2,0,0,0,.87,1.32,8.6,8.6,0,0,0,2,1.19c.79.35,1.66.78,2.58,1.3s1.8,1.06,2.61,1.62A7.91,7.91,0,0,1,228.89,74a7.06,7.06,0,0,1,1.06,3c.28,2.73-.39,4.73-2,6s-4.35,1.58-8.14.91Z" transform="translate(-8.48 -14.32)"/></svg>