<svg id="Capa_1" data-name="Capa 1" xmlns="http://www.w3.org/2000/svg" viewBox="0 0 1053.73 855.73"><defs><style>.cls-1{fill:#062a5e;}.cls-2{fill:#f2a408;}.cls-3{fill:#a5200e;}.cls-4{fill:#1c1924;}.cls-5{fill:#02329e;}.cls-6{fill:#cd280c;}.cls-7{fill:#fff;}.cls-8{fill:#edddb4;}.cls-9{fill:#f6d204;}</style></defs><title>pajaro</title><path class="cls-1" d="M829.39,377.73a72.13,72.13,0,0,1-21.95-7.84,93,93,0,0,0,6.14,35.4L792,391.61a38,38,0,0,0,9.62,34,58.66,58.66,0,0,0-55.22,15.08c-2,2-3.92,4.3-4.55,7.07-3,13.14,20.13,14.39,28,25.35-19-6.44-41.65.08-54.31,15.62l27.39,14.2a105.68,105.68,0,0,0-67.8,29.78A71.87,71.87,0,0,0,705.27,547a79.43,79.43,0,0,0-45.69,7.35c-11.93,5.87-23.25,20.84-15,31.27,3.38,4.27,9,6,14.2,7.46l45,12.75c3.08.87,6.49,2,7.92,4.86s-1.35,7.31-4.23,5.94a114.46,114.46,0,0,0,26.81,12.26c-11.8,7.88-9.89,27.16.1,37.25s24.75,13.39,38.65,16.25c3.25.67,6.72,1.32,9.82.12,3.75-1.45,6-5.22,7.94-8.75,32.08-58.3,59.18-119.59,97-174.35,48-69.46,112.67-127.66,150.35-203.21a334.69,334.69,0,0,0,32.24-190.46,122.71,122.71,0,0,0-37.26,86.85,94,94,0,0,1-8.31-64.54c-8.76-2.86-17.32,4.6-23,11.85-23.72,30.32-35.95,67.82-47.73,104.48q-13.83,43-27.65,86l-22.56-69.46A374.1,374.1,0,0,0,893.8,362.47c-20.27.36-30.73-23-42.53-39.49-5-7-14.54-13.75-21.5-8.65-3.64,2.68-4.75,7.57-5.33,12.05A116.13,116.13,0,0,0,829.39,377.73Z" transform="translate(-38.4 -81)"/><path class="cls-2" d="M773.26,605.58l-30.88,16.06,47,19.1c-9.27-3.65-19.48,7.13-17.87,17s11.27,16.68,21,18.52c24,4.53,46.37-14.4,59.28-35.15,21-33.79,27.8-74.57,46.25-109.82a185.14,185.14,0,0,1,83.46-80.47c6.16-2.95,12.57-5.6,17.84-9.95,5.6-4.62,9.56-10.87,13.43-17l79.32-126a47,47,0,0,0-34.56,20.56c-11.44-16.67,20.34-43.35,4.84-56.33a50.56,50.56,0,0,0-20.88,16.51c-1.83-5.95-10.27-7.43-15.67-4.33s-8.4,9-11.11,14.64L964.1,393.54q-1.86-10.73-3.74-21.45a8.24,8.24,0,0,0-8.63,8.45c-6-4.46-15.07-2-20.23,3.47s-7.37,12.92-9.42,20.12a41.58,41.58,0,0,0-27.93-17.43q-8.89,29.3-17.8,58.59c-5-9.17-19.14-11.47-26.73-4.33s-6.17,21.44,2.68,27l-37.35,10A22.6,22.6,0,0,0,827.07,489a372,372,0,0,0-58.5,23c-15.5,7.68-32.9,24.31-24,39.16L766,557.64a52.8,52.8,0,0,0-52.37,14.3c-2.77,3-5.33,6.83-4.47,10.8,1.11,5.11,7,7.34,12.07,8.71Z" transform="translate(-38.4 -81)"/><path class="cls-3" d="M988.72,410.06q-22,27.09-44,54.16a26.6,26.6,0,0,0-10.66-20.39l-6.24,22c-11.63-4.95-26,9.06-21.28,20.8-21-7.6-46.54,11.93-44.74,34.15-10-.78-20.1-4.62-29.91-2.39s-17.81,15.19-10.7,22.31c-5.61,5-13.78,5.45-20.87,7.94s-14.12,9.76-11.16,16.66c1,2.42,3.13,4.22,5.14,5.92q15,12.64,30,25.3c-4.11-1.84-9.57,1.49-9.83,6s4.79,8.42,9.09,7.06l-14.06,4.23c-.21,10.05,8.7,19.41,18.76,19.68-6.32,2-7.76,11.15-4.16,16.74s10.25,8.31,16.6,10.25a144.21,144.21,0,0,0,24.48,5.24c-1.09-13.73,6.39-26.54,13.94-38.07A700.23,700.23,0,0,1,1016.94,473c-4.62-5.61-14.79-5-18.65,1.19a248.08,248.08,0,0,0,41.81-53,54.06,54.06,0,0,0-32,13.32c6.61-5.05,10.74-13.88,8.54-21.9s-11.82-13.69-19.4-10.27C993.72,404,991.15,407.07,988.72,410.06Z" transform="translate(-38.4 -81)"/><path class="cls-4" d="M461.53,901.12c-4.46.37-9.07.41-13.26-1.16s-7.91-5.06-8.64-9.47,2.37-9.43,6.83-9.81c.06-1.11-1.42-1.55-2.53-1.5-8.22.35-15.29,8.37-14.61,16.56s8.95,15,17.12,14a45.94,45.94,0,0,1-17.36-1c-5.28-1.32-11.08-4.57-11.58-10a13.76,13.76,0,0,0,6.53,22,22.92,22.92,0,0,0,8,.65,67.16,67.16,0,0,0,13.72-2.24,17.71,17.71,0,0,1-9.67,6.25c7.11,1.51,14.61,0,21.24-3s12.49-7.42,18.2-11.92c21.46-16.9,41.83-35.92,55.63-59.49a13.87,13.87,0,0,0,2.36-6.29c.08-2.26-1.2-4.74-3.41-5.26-2.63,6.24-6.59,11.81-10.51,17.33-9,12.65-18.16,25.45-30,35.47a33.15,33.15,0,0,0,5.87-11.81c.74-2.78,1.08-5.87-.26-8.41a10.34,10.34,0,0,0-3.5-3.61c-3.13-2.11-7.12-3.29-10.73-2.18s-6.43,5-5.51,8.65a6.07,6.07,0,0,1,8.61-2c2.12,1.57,2.93,4.39,3,7a18.72,18.72,0,0,1-5.16,13.51C476.74,898.74,468.93,900.49,461.53,901.12Z" transform="translate(-38.4 -81)"/><path class="cls-4" d="M525.57,913.31c-4.2.36-8.54.39-12.49-1.09s-7.45-4.76-8.14-8.92,2.24-8.88,6.44-9.24c.05-1-1.34-1.46-2.39-1.42-7.74.34-14.4,7.89-13.76,15.61s8.44,14.08,16.12,13.15a43.45,43.45,0,0,1-16.34-.9c-5-1.25-10.44-4.31-10.92-9.42a13,13,0,0,0,6.16,20.7,21.46,21.46,0,0,0,7.54.61,62.88,62.88,0,0,0,12.93-2.11,16.69,16.69,0,0,1-9.11,5.89c6.7,1.43,13.76,0,20-2.85s11.77-7,17.15-11.23c20.22-15.92,39.41-33.84,52.41-56a13.07,13.07,0,0,0,2.22-5.93c.08-2.13-1.13-4.47-3.21-5-2.48,5.88-6.21,11.13-9.91,16.33-8.49,11.92-17.1,24-28.29,33.41a31.22,31.22,0,0,0,5.53-11.12c.7-2.62,1-5.53-.25-7.92a9.62,9.62,0,0,0-3.3-3.41c-2.94-2-6.71-3.1-10.1-2.05s-6.06,4.71-5.19,8.15a5.72,5.72,0,0,1,8.11-1.86c2,1.49,2.75,4.14,2.85,6.63A17.63,17.63,0,0,1,544.76,906C539.91,911.08,532.54,912.73,525.57,913.31Z" transform="translate(-38.4 -81)"/><path class="cls-5" d="M278.36,804.78a129.93,129.93,0,0,0-72.64,5.27c-1.18.45-2.5,1.05-2.86,2.26s1.24,2.66,2.1,1.74a209.9,209.9,0,0,0-57.18,21.61c-5.84,3.25-12.38,8.7-10.68,15.16q59-15.09,116.65-34.7C262.34,813.2,271,810.13,278.36,804.78Z" transform="translate(-38.4 -81)"/><path class="cls-5" d="M259.13,823c8.84-.27,17.48-2.61,26.05-4.82A951.11,951.11,0,0,1,483,788.92c2.32-.1,5.44-1.08,5.12-3.37-.14-1,1.46-8.06.66-8.72-7.37-6-17.77-6-27.21-7-4.29-.47-8.63.18-12.91.83L356,784.75c-8.94,1.36-17.88,2.72-26.71,4.67a205.14,205.14,0,0,0-66.69,27.79C260.52,818.54,258.19,820.76,259.13,823Z" transform="translate(-38.4 -81)"/><path class="cls-6" d="M433.48,776.05c7.6-2.78,15.92-6.88,18.23-14.64-34-3.65-68.28,1.56-102.42.08-11.08-.48-22.14-1.67-33.24-1.75a273.72,273.72,0,0,0-34.55,2.38,738.59,738.59,0,0,0-147.72,33.3c-12.61,4.24-26.2,9.75-32.38,21.52,22.8,5.29,46.58,3.7,69.94,2.07l91-6.32c10.69-.75,21.4-1.49,32-3.1,9.51-1.45,18.91-3.58,28.29-5.72l53.16-12.09C395.21,787.35,414.74,782.91,433.48,776.05Z" transform="translate(-38.4 -81)"/><path class="cls-6" d="M445.69,762.86c4.81-.75,9.82-1.58,13.77-4.41s6.47-8.33,4.34-12.71a348.8,348.8,0,0,1-88.32,12.51c-13.07.16-26.16-.41-39.2.47-16.1,1.1-32,4.39-47.85,7.29a975.22,975.22,0,0,1-135.16,15c-32.79,1.34-66,1.07-97.79,9.37-6.95,1.81-14.7,4.86-17.08,11.65,19.84,3.73,40.15,3.94,60.33,3.77,36.6-.32,73.23-1.86,109.55-6.37,14-1.73,27.9-3.9,41.82-6.07l38.68-6,100.44-15.66Z" transform="translate(-38.4 -81)"/><path class="cls-5" d="M459.09,742.23c-13.88,1.76-27.78,3.51-41.75,4.16-13.25.61-26.52.23-39.76-.36a1312.29,1312.29,0,0,1-172.7-19.12,8.77,8.77,0,0,0-.62,6.3c9.69,10.44,25,12.89,39.15,14.65,76.27,9.51,154.4,16.42,229.4-.39,7.42-1.66,15.26-3.83,20.27-9.54Z" transform="translate(-38.4 -81)"/><path class="cls-5" d="M193,780.34c26,1.13,52,2,77.93-.14,17-1.42,33.9-4.15,50.76-6.88L463.23,750.4c3-.49,6.83-1.78,6.95-4.86q-163,11-326.58,9.92c-8.37-.05-16.95-.1-24.79,2.81,4.26,9.44,15,14,25,16.53C159.85,778.79,176.46,779.62,193,780.34Z" transform="translate(-38.4 -81)"/><path class="cls-6" d="M1035.5,679.62a114.34,114.34,0,0,0-34.82-40.13c-1.82,4.15-27.32-2.85-31.71-3.94-39-9.69-64.88,14.57-104.86,18.28-30.37,2.82-130.49,8.4-160.25,15.06C588.81,694.66,547,701.44,444.46,759.7c-3.54,2-7.62,5.79-5.69,9.38,1,1.85,3.22,2.59,5.25,3.14a173.56,173.56,0,0,0,27,5.09,4.78,4.78,0,0,0-3.43,4.61c22,10.61,44.13,21.06,66.58,30.73q-1.41,2.37-2.8,4.74c-2.9,4.92-5.85,10-6.93,15.58-.8,4.15-.18,9.14,3.35,11.46a10.54,10.54,0,0,0,6.35,1.35,45,45,0,0,0,10.1-2l39.84-11.33q5.26,1.88,10.55,3.65c-2.3,7.08-9.76,14.15-6.54,20.92,2,4.22,7.45,5.71,12.06,5s8.75-3.13,13.13-4.74c8.67-3.18,18.76-3.53,26.54-8,47.24,11.44,96.45,15.75,144.27,7.62,22.6-3.85,44.68-10.42,66.14-18.5,26.86-10.11,52.78-22.57,78.65-35,11.3-5.43,22.67-10.9,32.73-18.37,8-5.92,15-13,23-19,11.37-8.57,24.39-14.75,35.71-23.39s21.21-20.71,22.36-34.9C1043.44,697.91,1040,688.29,1035.5,679.62Z" transform="translate(-38.4 -81)"/><path class="cls-7" d="M920.36,689c-2.66,9.62-5,19.53-4.32,29.49s4.81,20.11,12.91,26a11.3,11.3,0,0,1-6.07.89c3.15,8.56,10.06,15.38,18,19.79s17,6.6,26,7.92c6,.88,12.16,1.39,18.14.33a35.73,35.73,0,0,0,26.8-22.56,16.5,16.5,0,0,1-11.59-13.12,3.69,3.69,0,0,0,1.88-4.9l3.53-.11c2.37-13.81,1-28.42-5.15-41s-17.15-23-30.51-27.19-28.9-1.74-39.6,7.31a28.45,28.45,0,0,0-6.7,8A43,43,0,0,0,920.36,689Z" transform="translate(-38.4 -81)"/><path class="cls-4" d="M974.8,773.83a3.48,3.48,0,0,0,2.08,4.5,43.24,43.24,0,0,0,38.3,1.91c4.17-1.85,8.45-5,9-9.53.45-4-2.21-7.66-4.72-10.83-4.85-6.13-9.92-12.44-16.86-16a7.72,7.72,0,0,0-5.13-1.1,9,9,0,0,0-3.73,2.33c-4.28,3.79-8.59,7.62-12,12.25A39.54,39.54,0,0,0,974.8,773.83Z" transform="translate(-38.4 -81)"/><path class="cls-8" d="M1003.18,730.47a37.26,37.26,0,0,1,11-8.6,27.44,27.44,0,0,1,13.43-2.76,13.66,13.66,0,0,1,5.5,1.26,12.08,12.08,0,0,1,5.66,7.23c1.16,3.63,1.1,7.53,1,11.35-.22,11.36-.44,22.83-3.11,33.87s-8,21.79-16.84,28.94c2.93-8.17,1.61-17.42-2-25.32s-9.31-14.64-15.31-20.92c-2-2.12-4.14-4.28-5.2-7C994.88,742.28,998.69,735.39,1003.18,730.47Z" transform="translate(-38.4 -81)"/><path class="cls-4" d="M977.35,704.58c-.38,4.12-5,6.93-9.1,6.3a10.87,10.87,0,0,1-8.08-6.64,14.32,14.32,0,0,1,.15-10.67l6.1-.78a10.4,10.4,0,0,1,5.49.28c2.56,1.13,3.74,4,4.6,6.72A12.18,12.18,0,0,1,977.35,704.58Z" transform="translate(-38.4 -81)"/><path class="cls-5" d="M545.8,229.89a251.18,251.18,0,0,1,8.79-114.84c-13.31.32-24.86,10.26-31,22.07s-7.82,25.35-9.43,38.56q-6.06,49.59-12.1,99.19a127.17,127.17,0,0,1-20.74-68c-8.38-3.72-15.95,6.61-18.85,15.31a194.33,194.33,0,0,0-9.14,79.57c-9.37-.27-15.55-9.41-21.12-17s-15-15.06-23.41-10.91q-.63,38.26-1.28,76.53c-5.85-11-24.93-2.59-26.1,9.78s8,23.05,16.53,32.07c-10.44-2.72-21.53-5.43-31.83-2.23s-18.77,14.76-14.61,24.71c1.81,4.34,5.57,7.51,9.24,10.45q15.27,12.24,31.53,23.2l-37.55-7a22.37,22.37,0,0,0,12.06,18.83H348.6c-6,10.23-.52,25.22,10.59,29.28-17.8,7.53-39.06,21.28-34.82,40.13,2.57,11.4,14,18.5,25.1,22.15s23.14,5.34,32.82,11.88c-9.91-2.27-20.69,6.78-20.19,16.94s12.13,18.09,21.77,14.85c-7.15,1.81-8.16,12.6-3.31,18.15s12.72,7.13,20,8.39l47.11,8.16a37.41,37.41,0,0,0-16.73,21.32,135.1,135.1,0,0,0,40.38,4.33,26.36,26.36,0,0,0-15,20.31l58.14,10.82-12.13,18,43.35,1.67c-7,2.7-14.18,5.57-19.2,11.1s-7,14.55-2.47,20.46a120.06,120.06,0,0,0,72.31-23.78c2.82-2.11,5.62-4.43,7.32-7.53,3.88-7,1.09-15.71-1.65-23.26-38.13-104.84-56.49-221.79-21.47-327.72,7.55-22.82,17.52-45,21.82-68.64,3.81-20.92,3.07-42.36,2.32-63.61q-2.52-71.25-5.05-142.49c-5.78-.85-10.28,4.74-13.22,9.79C561.9,132.83,553.64,182,545.8,229.89Z" transform="translate(-38.4 -81)"/><path class="cls-9" d="M624.85,357.55l-5.73-76.66c-1.66-22.09-3.86-45.65-17.65-63-6.18-1.76-9.46,7.06-9.68,13.47q-1.47,42.66-.6,85.36A177.76,177.76,0,0,1,557,263.64q2.12,32.79,4.24,65.56a123.32,123.32,0,0,0-52.78-25.91,99.74,99.74,0,0,0,1.8,50.9,33.91,33.91,0,0,0-23.2-14A31.15,31.15,0,0,0,492,366.47l-13.74-.65A55.78,55.78,0,0,0,492.63,414c-36.52-9.81-82.41,12-86.87,49.54-.33,2.79-.4,5.77.92,8.26,2.06,3.84,6.72,5.32,10.93,6.45l49.57,13.33a151.82,151.82,0,0,0-33.59,2.16l13.78,12.49A33.85,33.85,0,0,0,418,521.5l47.61,14.14-43.1,11.54c.86,14.67,11.42,27.38,24.11,34.78s27.39,10.44,41.8,13.36c-8.34,2.52-13.55,12.51-10.86,20.79s12.77,13.29,21,10.43A22.45,22.45,0,0,0,500.4,647l25.11,4.87q-.94,5.21-1.88,10.39a147.48,147.48,0,0,0,44.3,2.85q-6.42,16.2-12.83,32.41a167.18,167.18,0,0,0,45.72,3.55c18.51-1.12,31.32-21,34.48-39.29s-.06-37-2.52-55.33a676.12,676.12,0,0,1-2.15-160.9C633.72,416.53,627,386.63,624.85,357.55Z" transform="translate(-38.4 -81)"/><path class="cls-3" d="M622.72,399.35l-17.73.11A25.71,25.71,0,0,0,608.08,419l-12.81,1.68c-3.37,11.7,3.48,25.41,14.86,29.74-24.09,8.12-42.43,27.42-59.74,46-3.1,3.34-6.35,7-7,11.47s2.56,9.87,7.1,9.54a40,40,0,0,0-24.57,9.74l8.37,16.65c-15.07,6.72-19,25.89-21.07,42.27-.71,5.8-1.3,12.17,1.92,17.05s9.71,6.94,15.6,8.23a222.54,222.54,0,0,0,68.19,4.26c-7.93-1-16,5.85-16.18,13.84a61.11,61.11,0,0,1,22.14,6.16c-8-2-16.25,7.19-13.52,14.92l11.57,2.1-6.57,29.85,21.11,3c-10.32,7-5.24,25.49,6.63,29.24s24.94-4.22,31-15.11c6.34,17.13,36,17,42.2-.13-3.71,6.71,7.61,11.23,15.24,10.65l29.92-2.29A349.23,349.23,0,0,1,656,503.89c-3.93-52.33,2.22-110.91-31.39-151.22A50.06,50.06,0,0,0,622.72,399.35Z" transform="translate(-38.4 -81)"/></svg>